<?xml version="1.0" standalone="no"?><!DOCTYPE svg PUBLIC "-//W3C//DTD SVG 1.1//EN" "http://www.w3.org/Graphics/SVG/1.1/DTD/svg11.dtd"><svg t="1761031724194" class="icon" viewBox="0 0 1024 1024" version="1.1" xmlns="http://www.w3.org/2000/svg" p-id="4629" xmlns:xlink="http://www.w3.org/1999/xlink" width="200" height="200"><path d="M491.33 315.43c20-0.73 40.2-1.41 60.03 1.99 30.3 4.9 59.12 16.85 85.01 33.19 48.83 1.05 97.73-0.15 146.57 0.6 16.98 0.38 34.08-1.25 51.05 0.7 20.07 0.31 40.14-0.15 60.22 0.21-8.78 6.58-14.73 16.96-16.28 27.83-1.21 4.9-8.75 0.57-11.93 2.02-0.34-6.65 2.98-12.58 4.07-18.92-78.67-0.16-157.35 0.06-236.03-0.11-16.73-10.36-34.21-19.92-53.07-25.84-22.73-7.91-46.97-11-70.97-10.11-27.66-1.08-55.18 4.97-80.67 15.41-8.08 1.16-16.24-1.15-24.41-0.47l0.22-0.85c26.54-14.46 56.06-23.19 86.19-25.65zM196.33 351.47c11.58-2.24 23.18 1.63 34.66-0.4 46.37-0.1 92.74-0.14 139.11 0.01-4.19 3.92-9.48 7.16-13.39 11.7-67.24 0.56-134.51 0-201.76 0.27 0.85 5.73 3.86 11.02 4.11 16.91-3.97 0.15-7.93 0.13-11.89-0.06-2.37-10.54-7.21-21.48-16.36-27.81 21.84-0.54 43.72 0.65 65.52-0.62z" fill="#50483c" p-id="4630"></path><path d="M396.32 353.4l10.85-0.32c-19.32 10.89-30.78 30.64-42.21 48.9 7.65-0.09 15.34 0.31 22.99-0.08 3.82-1.03 6.86-3.72 10.02-5.97 0.05 7.05 0.11 14.1-0.03 21.16-4.66-1.32-8.7-4.92-13.93-4.05-8.36 0.29-17.41-0.94-25.35 0.66-28.45 49.95-56.71 100.12-84.37 150.53-1-13.41-10.27-24.11-20.19-32.35-21.15-12.66-44.19-21.74-66.16-32.84-26.17 12.2-52.11 29.44-81.94 30.95-7.12-0.74-14.48-1.79-20.83-5.29-0.32-10.61-0.23-21.22-0.09-31.82 6.09 6.08 13.96 11.3 22.91 11.11 14.36 1.48 27.71-5.27 39.71-12.3 2.27-1.37 4.73-2.56 6.54-4.55-20.43-0.38-40.87 0.04-61.3-0.19 0.98-4.34 3.5-8.32 3.02-12.94 0.13-12.01 0-24.02 0.07-36.03 0.5-3.15-2.98-4.9-3.15-7.91 25.73-0.22 51.46 0.08 77.18-0.13-0.06-3.13-3.75-4.4-5.25-6.82 16.11-0.18 32.23-0.23 48.34-0.03-1.76 2.52-6.11 3.31-6.24 6.85 28.01 0.18 56.02-0.05 84.03 0.09-3.86 6.3-2.9 13.9-2.96 20.97 0.4 12.03-1.53 24.49 2.86 36.03-22.97 0.03-45.95-0.17-68.92 0.04 12.06 8.46 26.68 15.17 41.42 18.45 8.87 1.45 19.87 0.28 25.3-7.84 15.99-28.11 31.12-56.74 47.41-84.66-11.05 0.61-23.15-2.39-33.08 3.87 0-7-0.04-14.01 0.1-21 2.74 2.37 5.41 4.95 8.99 6.05 9.94 0.13 19.89 0.12 29.84 0.01 10.96-22.06 28.8-44.23 54.42-48.55m-272.28 91.63c-0.11 8.63-0.09 17.27 0 25.91 15.97 0.16 31.94 0.05 47.92 0.02 0.08-8.25 0.18-16.5-0.1-24.74-1.57-2.71-5.9 0.03-7.85-1.25-13.33 0.08-26.65-0.05-39.97 0.06m81.02 0c0.55 8.7-1.32 17.26-1.06 25.93 18.32 0.08 36.64 0.06 54.96 0.01 0.11-8.64 0.08-17.27 0-25.9-17.96-0.19-35.94-0.05-53.9-0.04z" fill="#50483c" p-id="4631"></path><path d="M112.82 391.09c13.45-0.16 26.91-0.16 40.36 0-3.05 2.02-6.55 4.77-6.24 8.86 29.68 0.08 59.36 0.09 89.04 0.01-1.09-3.58-3.58-6.28-6.15-8.87 13.45-0.15 26.91-0.18 40.37 0.03-3.02 2.33-6.77 4.69-7.32 8.81 10.69 0.25 21.39-0.12 32.09 0.12 0.01 4.62 0.2 9.28-0.04 13.92-10.63 0.19-21.26-0.15-31.88 0.08-0.03 2.73-0.08 8.19-0.1 10.92-8.97 0.03-17.94 0.14-26.9-0.02-0.03-2.73-0.08-8.19-0.1-10.92-29.96-0.05-59.93-0.07-89.89 0.01-0.03 2.73-0.08 8.2-0.11 10.93-8.97 0.03-17.94 0.14-26.9-0.02-0.03-2.73-0.08-8.19-0.1-10.92-9.64-0.23-19.29 0.2-28.92-0.1 0.91-4.32-1.93-10.24 1.19-13.79 9.27-0.42 18.55 0.1 27.82-0.2 0.35-4.09-3.19-6.83-6.22-8.85zM424.26 392.18c9.98-0.36 19.98-0.24 29.97-0.03-7.86 4.22-11.95 12.43-16.2 19.85 5.05 7.34 16.02 4.74 23.93 4.94 0.08-5.33 0.11-10.64 0.07-15.96 0.43-3.79-3.18-6.16-5.07-8.95 13.05 0.03 26.11-0.21 39.16 0.06-7.56 5.89-4.83 16.47-5.06 24.88 8.28 0.19 17.74 1.83 23.9-5.07 0.03 7.7 0.15 15.41 0 23.11-6.56-5.71-15.96-3.81-23.93-3.96-0.02 6.29-0.22 12.61 0.04 18.92 8.28 0.2 17.73 1.83 23.89-5.07 0.02 6.36 0.16 12.74 0 19.11-6.22-5.45-15.18-4-22.77-3.89-3 5.95-0.33 14.14-1.15 20.84 8.14-0.24 17.33 2.2 23.95-3.97-0.01 5.98 0.14 11.99-0.03 17.99-7.04-4.71-15.9-2.78-23.92-2.91-0.11 6.62-0.11 13.25 0 19.89 6.8-1.14 15.76 2.98 21.2-2.71 0.71-0.81 1.6-1.27 2.69-1.37 0.14 8.39 0.11 16.8 0.01 25.21-3.98-2.9-6.92-8.75-12.93-7.06-18.66-0.04-37.32-0.11-55.97 0.03-3.26 1.02-5.36 4.04-7.95 6.11-0.11-8.06-0.2-16.11-0.06-24.15 6.66 5.94 15.78 3.75 23.94 3.93 0.09-6.64 0.09-13.28-0.01-19.91-8.05 0.41-16.85-2.04-23.99 2.86 0.03-6.01-0.12-12 0.1-17.99 5.95 6.83 15.87 3.56 23.89 4.02 0.08-6.97 0.12-13.94 0-20.9-8.2-0.49-16.51-0.87-23.89 3.1-0.1-5.74-0.2-11.46-0.03-17.17 2.2 1.06 4.1 2.61 6.26 3.76 5.86 0.36 11.77 0.46 17.66 0.22 0.01-6.31 0.23-12.61-0.03-18.91-8.11 0.03-16.64-1.53-23.86 3.08-0.06-6.74-0.09-13.47-0.12-20.19-3.88 0.73-4.2 6.51-6.64 9.39-0.78 28.22-0.03 56.47-0.35 84.7 0.28 4.81-1.73 9.59-4.63 13.33-9.43 8.34-22.37 11.07-34.48 12.64 6.89-4.86 14.83-11.53 14.11-20.97 0.04-24.66 0.13-49.32-0.03-73.97l-15.13-0.16c2.83-2.15 5.56-4.47 7.93-7.13 8.44-13.24 17.43-26.13 25.53-39.57zM515.76 393.15c33.13-0.25 66.28-0.24 99.41-0.03-5.93 3.4-10.78 8.65-11.12 15.91-0.11 28.64-0.07 57.28-0.01 85.92 2.88 0.02 5.99-0.02 8.93 0.12 0 4.6 0.2 9.25-0.04 13.87-2.91 1.65-12.69-3.41-9 5.08-1.98 13.54-17.82 17.24-28.95 20.01 4.82-7.06 7.29-15.33 5.99-24-15-0.06-29.99-0.07-44.98 0-5.35-1.12-9.22 3.09-12.96 6.01-0.06-6.99-0.14-13.97 0.01-20.94l4.91-0.24c0.1-28.29 0.06-56.58 0.02-84.87 1.2-8.18-6.94-12.36-12.21-16.84m35.31 15.89c-0.27 6.3-0.07 12.6-0.03 18.92 9.96 0.09 19.92 0.08 29.89 0 0.26-6.3 0.04-12.62 0.03-18.92-9.97-0.1-19.93-0.09-29.89 0m-0.03 31.99c-0.14 6.97-0.1 13.95 0 20.93 9.97 0.09 19.94 0.08 29.92 0.01 0.12-6.98 0.08-13.96 0-20.93-9.98-0.1-19.95-0.09-29.92-0.01m0.02 36c-0.26 5.97-0.06 11.94-0.02 17.93 9.96 0.09 19.93 0.08 29.9 0.01 0.25-5.98 0.03-11.97 0.02-17.93-9.97-0.1-19.94-0.09-29.9-0.01zM736.06 393.03c31.36-0.01 62.73-0.15 94.09 0.06-5.06 4.11-9.83 9.85-9.11 16.9-0.17 18.66 0.08 37.32-0.08 55.98-28.31 0.05-56.62 0.06-84.92-0.01-0.05-24.31-0.12-48.62 0.02-72.93m28.01 10c-0.27 6.3-0.07 12.59-0.03 18.9 9.62 0.25 19.25 0.03 28.89 0.04 0.26-6.3 0.03-12.62 0.03-18.9-9.63-0.25-19.27-0.04-28.89-0.04m-0.02 35c-0.23 5.63-0.08 11.26-0.02 16.9 9.63 0.25 19.27 0.02 28.92 0.04 0.2-5.64 0.04-11.28 0.02-16.9-9.64-0.25-19.29-0.04-28.92-0.04zM841.31 393.33c32.6-0.7 65.25-0.26 97.87-0.23-7.26 3.09-11.13 11.26-11.14 18.89-0.22 17.99 0.15 35.99-0.11 53.98-13.04-0.05-26.08 0.25-39.11-0.09 4.16-2.72 9.33-5.49 10.3-10.81-15.03-0.14-30.05-0.1-45.06-0.03-0.03 2.73-0.08 8.2-0.11 10.93-8.32 0.08-16.62 0.08-24.91-0.01-0.07-18.33-0.09-36.65 0-54.97-0.75-7.96 5.28-14.83 12.27-17.66m12.71 14.71v9.91c15.64 0.12 31.3 0.06 46.96 0.01v-9.91c-15.66-0.12-31.31-0.07-46.96-0.01m0.01 22.99c-0.01 2.73-0.01 8.19-0.01 10.92 15.64 0.12 31.3 0.05 46.95 0.02 0.01-2.73 0.01-8.19 0.01-10.92-15.65-0.13-31.31-0.06-46.95-0.02zM623.74 394.16c10.66-0.16 21.36-0.44 32.02 0.02 4.31 7.56 9.7 14.39 14.43 21.68 0.36-0.05 1.06-0.15 1.41-0.2 5.1-6.68 9.81-13.64 14.83-20.37 10.55-0.57 21.14-0.31 31.72-0.21-1 1.71-3.29 2.11-4.28 3.81-4.86 8.1-9.82 16.13-14.91 24.09 9.97-1.1 21.64 3.33 30.03-3.99 0.02 7.02 0.09 14.06-0.05 21.1-3.96-1.12-7.54-3.82-11.93-3.05-11-0.04-21.99-0.18-32.97 0.02-0.09 8.63-0.12 17.27 0 25.91 11.98 0.06 23.98 0.06 35.98 0.03 3.49-0.45 6.22-3.02 8.94-5.1 0.01 7.71 0.17 15.43-0.01 23.14-3.62-1.57-6.39-5.47-10.94-4.01-12.02-0.07-24.04-0.09-36.05 0.01 1.7 10.54 11.88 17.55 20.73 22.3 8.74 4.49 18.44 6.62 28.31 5.72 0.48 8.36-1.16 16.6-1.09 24.95-16.7 0.59-33.22-5.32-46.28-15.6-5.19-3.23-8.52-8.96-13.47-12.26-13.31 16.97-34.52 24.57-55.11 27.84-0.01-9.64-0.25-19.27 0.03-28.89 12.15-0.09 25.88-2.11 34.76-11.26 2.94-3.71 5.99-7.88 6.23-12.79-10.37-0.13-20.73-0.05-31.09-0.07-3.46-0.19-6.12 2.49-8.97 4.03 0-7.69-0.14-15.38 0.04-23.06 2.49 1.93 4.95 3.95 8 5 10.3 0.12 20.61 0.09 30.92 0.01 0.06-8.65 0.09-17.29-0.01-25.93-10-0.07-19.99-0.1-29.98 0-3.17 0.32-5.88 2.25-8.91 3.1-0.14-7.05-0.13-14.09-0.05-21.12 8.11 6.91 19.3 3.11 29.01 3.95-5.39-7.74-9.79-16.11-15.09-23.91-0.93-3.11-4.11-3.2-6.2-4.89zM68.11 419.08c4.89 4.44 10.74 7.52 16.72 10.23 0.23 3.91 0.27 7.82 0.13 11.74-2.78-0.04-5.23-1.55-7.9-2.13-0.33 24.09 1.82 48.11 0.88 72.23-6.95-12.09-9.33-26.71-11.36-40.49-1.97-14.59-2.34-29.42-0.18-44.01 1.12-2.32-0.3-5.59 1.71-7.57zM956.3 419.38c2.38-0.46 1.43 4.47 1.93 6.55 4.14 28.1 1.17 57.8-10.33 83.87-3.1-0.59-6.38-0.86-8.83-2.98-0.51-2.49-0.34-4.87 0.51-7.15 7.03-19.38 9.38-40.21 8.37-60.73-3.07 0.75-5.99 1.97-8.97 2.97 0.06-4.22-0.33-8.44 0.19-12.63 6.44-1.87 12.23-5.33 17.13-9.9z" fill="#50483c" p-id="4632"></path><path d="M362.31 421.18c10.94-0.29 21.91-0.31 32.87-0.08-2.43 1.9-5.95 2.7-7.14 5.93-15.83 30.74-32.45 61.13-48.19 91.89 6.7 0.15 13.41 0.16 20.12 0.03 1.38-0.5 3.07-0.96 3.43-2.6 2.42-9.86-2.45-21.39 3.59-30.35 6.73-12.69 12.22-26.06 19.85-38.25 0.36 22.09 0.06 44.18 0.18 66.27-0.43 8.96-9.38 15.44-18.01 14.94-21.34 0.06-42.68 0.09-64.01 0 19.01-35.98 38.62-71.64 57.31-107.78zM736.06 472.03c63.97-0.04 127.94-0.08 191.91 0.02 0.24 12.63-0.25 25.27 0.12 37.9 3.89 10.8 17.63 10.21 27 10.13-7.55 8.48-20.25 9.88-31.08 9.94-62.66-0.09-125.32 0.08-187.98-0.08-0.03-19.3-0.13-38.61 0.03-57.91m30.99 17c-0.17 8.93-0.09 17.88 0.01 26.82 7.71 2.06 15.28-0.53 22.88 1.2 0.2-9.33 0.03-18.67 0.03-27.99-7.65-0.25-15.3-0.05-22.92-0.03m50 0c-0.17 8.95-0.1 17.91 0.02 26.88 5.34 2.15 10.52-0.86 15.92 0.71 3.6-1.1 7.29-0.25 10.95 0.3 0.21-9.29 0.03-18.59 0.03-27.87-8.98-0.17-17.96-0.07-26.92-0.02m50 0c-0.17 8.92-0.1 17.84 0.02 26.77 7.31 1.97 14.83-1.27 22.21 0.89 2.77 0.07 6.72 1.84 8.57-0.9 0.43-8.9 0.06-17.85 0.12-26.75-10.32-0.11-20.62-0.08-30.92-0.01zM92.93 540.05c4.94 0.44 9.89 0.83 14.84 1.16 29.95 39.23 78.78 63.36 128.23 62.81 71.67-0.06 143.33 0.02 215-0.04 18.94-0.66 38.52 3.72 54.03 14.99 3.09 1.64 4.76 5.31 7.8 6.89 14.46-16.4 37.14-21.54 58.16-21.88 75.01 0.04 150.01 0.01 225.02 0.02 43.84-1.74 86.84-22.27 115.24-55.75 2.52-2.06 3.93-5.4 6.93-6.85 4.31 0.58 8.64 0.45 12.94-0.33-30.92 46.98-87.84 75.75-144.12 73.94-14 0.32-28.08-0.86-42 0.83-4-0.32-7.99-1.19-11.99-0.86-36.68 0.03-73.35 0.02-110.02 0.01-4.74-0.55-9.26 1.61-13.98 0.13-17.02-0.22-34.06-0.51-51.03 0.9-19.28 2.21-40.15 12.99-45.32 33.1-4.24-13.68-15.43-24.22-28.79-28.96-10.41-4.7-21.87-3.48-32.86-5.09-60-0.18-120.01 0-180.02-0.09-3.59-1.32-6.83 1.39-10.32 0.6-18.92-1.99-38.36 1.66-57.01-3.14-44.5-8.2-85.76-34.53-110.73-72.39z" fill="#50483c" p-id="4633"></path><path d="M706.32 543.38c6.13-0.4 12.63-1.23 18.57 0.86-0.02 2.85 0.24 5.88 0.08 8.78-5.43-4.44-14.74-6.22-20.03-1.03-1.94 2.32-0.37 5.79 2.02 7.07 6.79 4.77 16.03 5.74 21.27 12.68 3.86 5.37 0.07 12.42-4.4 16.1-7.77 5.62-17.97 4.49-26.67 1.95-0.89-3.26-1.62-6.53-2.2-9.83 3.7 1.71 6.65 4.93 11.02 5.09 5.63 2.46 14.08 0.32 16.02-6.05-4.23-11.32-20.89-8.58-25.13-19.91-3.31-6.99 2.71-14.26 9.45-15.71zM294.94 548.01c2.76 0 8.27 0.01 11.03 0.02 0.2 12.64-0.18 25.29 0.09 37.94 5.98 0.14 11.98-0.12 17.97 0.08-0.89 2.27-2.47 4.15-4.28 5.76-8.27 0.37-16.54 0.18-24.81 0.17 1.77-2.68 4.39-5.28 3.03-8.97 0.06-10 0.11-19.99-0.02-29.97-0.53-1.92-1.98-3.39-3.01-5.03zM576.32 549.4c4.23-1.09 8.45 0.14 12.62 0.72 0.01 1.71 0.05 5.12 0.06 6.83-5.42-3.05-12.43-4.37-17.95-0.9-6.97 3.1-8.25 13.07-3.9 18.78 2.46 4.44 7.95 6.48 12.85 6.17 5.14 1.14 7.14-0.85 6-6 1.95-4-1.43-5.5-3.16-7.93 2.53-0.01 7.59-0.04 10.12-0.05 0 5.59 0.28 11.22-0.07 16.83-9.91 2.84-21.83 3.5-30.19-3.54-3.21-3.13-5.78-7.67-4.75-12.31-1.12-10.26 8.74-18.27 18.37-18.6zM404.34 550.47c4.54-1.14 9.11 0.11 13.62 0.71 0 1.47 0.01 4.4 0.02 5.86-3.58 0.33-6.13-3.51-9.98-2.04-6.9-0.61-15.37 5.34-14 13-1.05 10.48 12.19 16.85 20.92 12.75 0.18-4.59 1.02-9.68-3.08-12.67 2.97-0.12 6.12-0.18 9.13-0.02 0 5.58 0.24 11.19-0.06 16.78-9.44 1.87-20.24 2.98-28.29-3.4-6.79-5.42-7.78-16.48-2.62-23.44 3.27-4.64 8.96-6.61 14.34-7.53zM506.84 550.08c2.95-0.12 6.12-0.18 9.13-0.02 0.15 9.96-0.1 19.93 0.07 29.9 4.64 0.1 9.32-0.06 13.98 0.09-1.07 1.62-2.11 3.26-3.25 4.84-6.29 0.3-12.5-1.23-18.79-0.96 1.4-2 3.46-3.95 1.98-6.93 0.06-7.34 0.15-14.68 0.03-22.01 0.23-2.24-2.11-3.27-3.15-4.91z" fill="#50483c" p-id="4634"></path><path d="M531.89 550.06c8.01-0.04 16.06-0.25 24.09 0.01 0.08 2.67 0.06 5.35-0.05 8.04-1.15-0.88-2.17-1.91-3.26-2.84-3.49 0.74-8.94-2.4-11.55 0.96 0.96 1.79-1.57 6.15 1.09 7.59 2.6-0.2 5.12-0.73 7.77-0.85 4.01 9.27-6.08 2.42-8.87 6.25 0.31 4.15-2.61 13.9 5.88 10.75 5.09 0.04 11.41-1.58 14.15 3.87-9.7 1.73-19.48-0.6-29.25 0.09 0.87-1.15 1.89-2.17 2.83-3.26 0.52-8.22 0.27-16.47 0.28-24.69 0.4-2.65-3.29-3.31-3.11-5.92zM595.89 550.06c8.01-0.04 16.06-0.25 24.09 0.01v6.96c-3.63-3.41-9.27-1.88-13.77-1.89-3.34 2.46-1.65 12.49 4.44 8.27 2.54-0.14 6.72-2.26 3.34 4.48-2.49 1.41-6.88-1.44-8.88 1.33 0.31 4.15-2.61 13.89 5.88 10.76 2.79 0.03 8.36 0.08 11.14 0.1-1.87 2.49-4.6 5.5-8.05 4.73-6.01-1.17-12.13-0.69-18.19-0.89 0.87-1.15 1.89-2.16 2.83-3.25 0.52-8.22 0.27-16.47 0.28-24.69 0.4-2.65-3.29-3.31-3.11-5.92zM624.01 549.96c3.46-0.12 8.12-0.87 10.28 2.76 5.54 5.48 10.83 11.24 16.61 16.47 0.23-6.4-0.1-12.78 0.17-19.16 2.92-0.11 6.06-0.1 9.04 0.04-0.88 1.14-1.91 2.16-2.84 3.26-0.66 10.25-0.02 20.54-0.36 30.81-8.85-7.24-15.22-16.86-23.82-24.32-0.4 7.97 0.33 16-0.25 23.97-2.24 2.86-6.71 0.68-9.86 1.18 1.72-2.69 4.33-5.27 2.99-8.96-1.14-8.53 2.66-18.25-1.96-26.05zM661.89 550.06c9.84-0.22 21.4-1.43 29.35 5.69 6.18 7.28 4.98 20.11-3.23 25.26-7.65 5.3-17.5 2.21-26.12 2.92 0.87-1.15 1.89-2.17 2.83-3.26 0.52-8.22 0.27-16.47 0.28-24.69 0.4-2.66-3.29-3.31-3.11-5.92m9.15 4.95c-0.11 8.33-0.11 16.66 0 25 7.53 0.83 19.2-3.47 16.98-13 1.56-9.21-9.48-13.71-16.98-12zM325.84 551.08c8.38-0.14 16.76-0.15 25.15-0.04l-0.04 7.05c-4.49-2.56-9.79-2.32-14.93-2.06-0.12 2.62-0.11 5.25 0.03 7.89 2.59-0.09 5.17 0 7.75 0.25 1.74 0.97 1.11 3.13 1.2 4.77-3.04 0.01-5.96 0-8.97 0.13-0.13 3.96-0.12 7.92 0.01 11.9 5.64 0.11 11.28-0.08 16.93 0.06-0.72 1.61-1.5 3.2-2.27 4.79-8.28 0.34-16.56 0.19-24.84 0.11 2.27-2.8 5.63-5.6 3.88-9.85-2.03-8.05 3.22-18.8-3.9-25zM364.87 551.04c2.94 1.47 10.04-2.8 10.83 2.25 4.21 9.81 8.01 19.79 12.54 29.46 1.13 0.97 2.95 1.38 2.88 3.21-3.04-0.17-5.95 0.31-8.94-0.1-1.95-4.19-3.45-8.55-5.46-12.7-4.18-0.12-8.36-0.49-12.5-0.02-1.82 4.24-2.83 8.91-5.4 12.77-7.09 3.4-4.65-0.64-3.98-3 3.79-9.59 8.04-19.02 11.8-28.62-0.79-0.98-1.63-1.96-1.77-3.25m5.4 8.06c-1.02 2.97-3.39 5.57-3.31 8.84 2.66 0.13 5.32 0.15 8 0.09-1.83-2.78-1.81-7.13-4.69-8.93zM421.84 551.07c2.53-0.01 7.59-0.04 10.13-0.05 0.31 8.9-0.41 17.86 0.23 26.75 2.24 2.51 5.56 5.48 9.14 3.7 2.33-0.36 3.95-2.08 5.47-3.73 0.48-8.9-0.03-17.82 0.24-26.71 2.95-0.1 6.06-0.13 9.04 0.04-4.33 8.75-1.13 19.41-2.12 28.95-0.53 2.38 1.79 3.77 2.18 5.92-2.08-1.76-8.86 2.46-9.48-1.82-6.73 2.61-15.92 3.92-20.41-3.33-1.92-8.12-1.07-16.55-1.26-24.8 0.22-2.24-2.13-3.27-3.16-4.92zM458.84 551.08c8.39-0.14 16.78-0.16 25.18-0.03 0.85 2.71 0.47 5-1.14 6.87-3.76-3.28-9.3-1.6-13.86-1.89-0.12 2.63-0.11 5.26 0.03 7.9 2.64-0.02 5.29 0.02 7.94 0.14 3.56 7.83-4.29 4.21-7.96 5.01-0.13 3.95-0.13 7.91 0.01 11.88 5.34 0.01 10.68 0.04 16.03 0.09 0.1 2.19-2.04 3.31-3.34 4.74-7.58 0.33-15.17 0.3-22.75 0.17 1.73-2.69 4.34-5.27 2.99-8.95 0.07-7.02 0.11-14.03 0.03-21.02 0.22-2.24-2.12-3.27-3.16-4.91zM491.28 565.29c3.19-0.65 7.58 3.83 4.02 7.02-2.18 3.39-7.8 1.4-8.28-2.31 0.62-2.16 2-4.09 4.26-4.71m-1.12 1.79c-2.03 2.99 0.36 6.19 3.84 4.92 0.64-2.66-0.52-6.07-3.84-4.92zM498.14 566.03h4.81c0.99 2.79-1.45 1.18-2.94 0.94-0.37 1.64 0.3 2.32 2.01 2.05 2.67 0.41-0.88 1.37-1.86 1.17-0.04 2.25 0.08 4.75-2.93 3.83 0.3-2.68 0.55-5.35 0.91-7.99z" fill="#50483c" p-id="4635"></path></svg>